<svg width="188" height="25" viewBox="0 0 188 25" fill="none" xmlns="http://www.w3.org/2000/svg">
<path d="M0.03125 24V1.25H8C10.7604 1.25 12.8542 1.78125 14.2812 2.84375C15.7083 3.89583 16.4219 5.44271 16.4219 7.48438C16.4219 8.59896 16.1354 9.58333 15.5625 10.4375C14.9896 11.2812 14.1927 11.901 13.1719 12.2969C14.3385 12.5885 15.2552 13.1771 15.9219 14.0625C16.599 14.9479 16.9375 16.0312 16.9375 17.3125C16.9375 19.5 16.2396 21.1562 14.8438 22.2812C13.4479 23.4062 11.4583 23.9792 8.875 24H0.03125ZM4.71875 14.0938V20.2344H8.73438C9.83854 20.2344 10.6979 19.974 11.3125 19.4531C11.9375 18.9219 12.25 18.1927 12.25 17.2656C12.25 15.1823 11.1719 14.125 9.01562 14.0938H4.71875ZM4.71875 10.7812H8.1875C10.5521 10.7396 11.7344 9.79688 11.7344 7.95312C11.7344 6.92188 11.4323 6.18229 10.8281 5.73438C10.2344 5.27604 9.29167 5.04688 8 5.04688H4.71875V10.7812ZM24.9375 24H20.4062V0H24.9375V24ZM27.9688 15.3906C27.9688 13.7135 28.2917 12.2188 28.9375 10.9062C29.5833 9.59375 30.5104 8.57812 31.7188 7.85938C32.9375 7.14062 34.349 6.78125 35.9531 6.78125C38.2344 6.78125 40.0938 7.47917 41.5312 8.875C42.9792 10.2708 43.7865 12.1667 43.9531 14.5625L43.9844 15.7188C43.9844 18.3125 43.2604 20.3958 41.8125 21.9688C40.3646 23.5312 38.4219 24.3125 35.9844 24.3125C33.5469 24.3125 31.599 23.5312 30.1406 21.9688C28.6927 20.4062 27.9688 18.2812 27.9688 15.5938V15.3906ZM32.4844 15.7188C32.4844 17.3229 32.7865 18.5521 33.3906 19.4062C33.9948 20.25 34.8594 20.6719 35.9844 20.6719C37.0781 20.6719 37.9323 20.2552 38.5469 19.4219C39.1615 18.5781 39.4688 17.2344 39.4688 15.3906C39.4688 13.8177 39.1615 12.599 38.5469 11.7344C37.9323 10.8698 37.0677 10.4375 35.9531 10.4375C34.849 10.4375 33.9948 10.8698 33.3906 11.7344C32.7865 12.5885 32.4844 13.9167 32.4844 15.7188ZM46.0625 15.3906C46.0625 13.7135 46.3854 12.2188 47.0312 10.9062C47.6771 9.59375 48.6042 8.57812 49.8125 7.85938C51.0312 7.14062 52.4427 6.78125 54.0469 6.78125C56.3281 6.78125 58.1875 7.47917 59.625 8.875C61.0729 10.2708 61.8802 12.1667 62.0469 14.5625L62.0781 15.7188C62.0781 18.3125 61.3542 20.3958 59.9062 21.9688C58.4583 23.5312 56.5156 24.3125 54.0781 24.3125C51.6406 24.3125 49.6927 23.5312 48.2344 21.9688C46.7865 20.4062 46.0625 18.2812 46.0625 15.5938V15.3906ZM50.5781 15.7188C50.5781 17.3229 50.8802 18.5521 51.4844 19.4062C52.0885 20.25 52.9531 20.6719 54.0781 20.6719C55.1719 20.6719 56.026 20.2552 56.6406 19.4219C57.2552 18.5781 57.5625 17.2344 57.5625 15.3906C57.5625 13.8177 57.2552 12.599 56.6406 11.7344C56.026 10.8698 55.1615 10.4375 54.0469 10.4375C52.9427 10.4375 52.0885 10.8698 51.4844 11.7344C50.8802 12.5885 50.5781 13.9167 50.5781 15.7188ZM69.0938 7.09375L69.2344 8.98438C70.4323 7.51562 72.0521 6.78125 74.0938 6.78125C76.2708 6.78125 77.7656 7.64062 78.5781 9.35938C79.7656 7.64062 81.4583 6.78125 83.6562 6.78125C85.4896 6.78125 86.8542 7.31771 87.75 8.39062C88.6458 9.45312 89.0938 11.0573 89.0938 13.2031V24H84.5625V13.2188C84.5625 12.2604 84.375 11.5625 84 11.125C83.625 10.6771 82.9635 10.4531 82.0156 10.4531C80.6615 10.4531 79.724 11.099 79.2031 12.3906L79.2188 24H74.7031V13.2344C74.7031 12.2552 74.5104 11.5469 74.125 11.1094C73.7396 10.6719 73.0833 10.4531 72.1562 10.4531C70.875 10.4531 69.9479 10.9844 69.375 12.0469V24H64.8594V7.09375H69.0938ZM100.844 24V1.25H108.812C111.573 1.25 113.667 1.78125 115.094 2.84375C116.521 3.89583 117.234 5.44271 117.234 7.48438C117.234 8.59896 116.948 9.58333 116.375 10.4375C115.802 11.2812 115.005 11.901 113.984 12.2969C115.151 12.5885 116.068 13.1771 116.734 14.0625C117.411 14.9479 117.75 16.0312 117.75 17.3125C117.75 19.5 117.052 21.1562 115.656 22.2812C114.26 23.4062 112.271 23.9792 109.688 24H100.844ZM105.531 14.0938V20.2344H109.547C110.651 20.2344 111.51 19.974 112.125 19.4531C112.75 18.9219 113.062 18.1927 113.062 17.2656C113.062 15.1823 111.984 14.125 109.828 14.0938H105.531ZM105.531 10.7812H109C111.365 10.7396 112.547 9.79688 112.547 7.95312C112.547 6.92188 112.245 6.18229 111.641 5.73438C111.047 5.27604 110.104 5.04688 108.812 5.04688H105.531V10.7812ZM120.281 15.3906C120.281 13.7135 120.604 12.2188 121.25 10.9062C121.896 9.59375 122.823 8.57812 124.031 7.85938C125.25 7.14062 126.661 6.78125 128.266 6.78125C130.547 6.78125 132.406 7.47917 133.844 8.875C135.292 10.2708 136.099 12.1667 136.266 14.5625L136.297 15.7188C136.297 18.3125 135.573 20.3958 134.125 21.9688C132.677 23.5312 130.734 24.3125 128.297 24.3125C125.859 24.3125 123.911 23.5312 122.453 21.9688C121.005 20.4062 120.281 18.2812 120.281 15.5938V15.3906ZM124.797 15.7188C124.797 17.3229 125.099 18.5521 125.703 19.4062C126.307 20.25 127.172 20.6719 128.297 20.6719C129.391 20.6719 130.245 20.2552 130.859 19.4219C131.474 18.5781 131.781 17.2344 131.781 15.3906C131.781 13.8177 131.474 12.599 130.859 11.7344C130.245 10.8698 129.38 10.4375 128.266 10.4375C127.161 10.4375 126.307 10.8698 125.703 11.7344C125.099 12.5885 124.797 13.9167 124.797 15.7188ZM138.375 15.3906C138.375 13.7135 138.698 12.2188 139.344 10.9062C139.99 9.59375 140.917 8.57812 142.125 7.85938C143.344 7.14062 144.755 6.78125 146.359 6.78125C148.641 6.78125 150.5 7.47917 151.938 8.875C153.385 10.2708 154.193 12.1667 154.359 14.5625L154.391 15.7188C154.391 18.3125 153.667 20.3958 152.219 21.9688C150.771 23.5312 148.828 24.3125 146.391 24.3125C143.953 24.3125 142.005 23.5312 140.547 21.9688C139.099 20.4062 138.375 18.2812 138.375 15.5938V15.3906ZM142.891 15.7188C142.891 17.3229 143.193 18.5521 143.797 19.4062C144.401 20.25 145.266 20.6719 146.391 20.6719C147.484 20.6719 148.339 20.2552 148.953 19.4219C149.568 18.5781 149.875 17.2344 149.875 15.3906C149.875 13.8177 149.568 12.599 148.953 11.7344C148.339 10.8698 147.474 10.4375 146.359 10.4375C145.255 10.4375 144.401 10.8698 143.797 11.7344C143.193 12.5885 142.891 13.9167 142.891 15.7188ZM163.312 17.2188L161.688 18.8438V24H157.172V0H161.688V13.2969L162.562 12.1719L166.891 7.09375H172.312L166.203 14.1406L172.844 24H167.656L163.312 17.2188ZM183.422 19.3281C183.422 18.776 183.146 18.3438 182.594 18.0312C182.052 17.7083 181.177 17.4219 179.969 17.1719C175.948 16.3281 173.938 14.6198 173.938 12.0469C173.938 10.5469 174.557 9.29688 175.797 8.29688C177.047 7.28646 178.677 6.78125 180.688 6.78125C182.833 6.78125 184.547 7.28646 185.828 8.29688C187.12 9.30729 187.766 10.6198 187.766 12.2344H183.25C183.25 11.5885 183.042 11.0573 182.625 10.6406C182.208 10.2135 181.557 10 180.672 10C179.911 10 179.323 10.1719 178.906 10.5156C178.49 10.8594 178.281 11.2969 178.281 11.8281C178.281 12.3281 178.516 12.7344 178.984 13.0469C179.464 13.349 180.266 13.6146 181.391 13.8438C182.516 14.0625 183.464 14.3125 184.234 14.5938C186.62 15.4688 187.812 16.9844 187.812 19.1406C187.812 20.6823 187.151 21.9323 185.828 22.8906C184.505 23.8385 182.797 24.3125 180.703 24.3125C179.286 24.3125 178.026 24.0625 176.922 23.5625C175.828 23.0521 174.969 22.3594 174.344 21.4844C173.719 20.599 173.406 19.6458 173.406 18.625H177.688C177.729 19.4271 178.026 20.0417 178.578 20.4688C179.13 20.8958 179.87 21.1094 180.797 21.1094C181.661 21.1094 182.312 20.9479 182.75 20.625C183.198 20.2917 183.422 19.8594 183.422 19.3281Z" fill="white"/>
</svg>
